<?xml version="1.0" encoding="UTF-8" standalone="no"?>
<!-- Created with Inkscape (http://www.inkscape.org/) -->

<svg
   version="1.1"
   id="svg1"
   width="1200"
   height="1200"
   viewBox="0 0 1200 1200"
   sodipodi:docname="cBNGL.svg"
   inkscape:version="1.4.3 (0d15f75, 2025-12-25)"
   xmlns:inkscape="http://www.inkscape.org/namespaces/inkscape"
   xmlns:sodipodi="http://sodipodi.sourceforge.net/DTD/sodipodi-0.dtd"
   xmlns="http://www.w3.org/2000/svg"
   xmlns:svg="http://www.w3.org/2000/svg">
  <defs
     id="defs1">
    <rect
       x="100.77121"
       y="229.30591"
       width="539.84575"
       height="220.05141"
       id="rect2" />
    <rect
       x="152.18509"
       y="349.6144"
       width="925.44987"
       height="478.1491"
       id="rect1" />
  </defs>
  <sodipodi:namedview
     id="namedview1"
     pagecolor="#ffffff"
     bordercolor="#000000"
     borderopacity="0.25"
     inkscape:showpageshadow="2"
     inkscape:pageopacity="0.0"
     inkscape:pagecheckerboard="0"
     inkscape:deskcolor="#d1d1d1"
     inkscape:zoom="0.9725"
     inkscape:cx="600"
     inkscape:cy="617.48072"
     inkscape:window-width="2560"
     inkscape:window-height="1369"
     inkscape:window-x="-8"
     inkscape:window-y="-8"
     inkscape:window-maximized="1"
     inkscape:current-layer="g1"
     showgrid="false" />
  <g
     inkscape:groupmode="layer"
     inkscape:label="Image"
     id="g1">
    <path
       style="fill:#e3e2db;stroke-width:1.22646"
       d="m 586.08837,1200.8428 c -20.9108,-1.3136 -63.55978,-5.6732 -77.02322,-7.8735 -23.6688,-3.868 -37.81595,-16.5994 -42.27087,-38.041 -1.75725,-8.4577 -0.1134,-20.0557 4.08531,-28.8231 6.3318,-13.2218 21.19627,-23.4749 35.69633,-24.6226 4.17505,-0.3304 19.92723,0.8067 35.56888,2.5677 40.05725,4.5099 61.93602,5.7856 100.43121,5.8557 50.22713,0.092 78.23702,-4.0781 117.45567,-17.4847 104.31203,-35.6579 198.31124,-133.84131 265.45832,-277.27492 44.089,-94.17899 74.6224,-207.80894 79.9106,-297.3868 1.279,-21.66485 -0.1701,-77.31783 -2.7621,-106.07412 -1.8427,-20.44671 -1.0675,-27.88108 3.9893,-38.25088 4.5645,-9.36005 11.167,-15.60978 21.8911,-20.72155 7.0791,-3.37438 9.3755,-3.85373 18.4603,-3.85373 9.1101,0 11.3732,0.47547 18.5548,3.89833 9.8861,4.71181 17.7236,12.32311 22.1994,21.55842 5.8308,12.03159 9.2874,55.08533 9.2906,115.72437 0,51.4049 -3.9351,90.63835 -14.1159,140.63541 -30.121,147.92239 -95.3418,290.35673 -179.8777,392.83137 -15.43717,18.713 -47.28002,51.5644 -64.78312,66.8351 -73.65773,64.2625 -152.03841,99.9306 -241.68964,109.9835 -18.05178,2.0242 -81.73236,2.3223 -110.46927,0.517 z M 220.1921,1077.7073 c -7.93414,-2.0217 -15.77767,-6.8155 -28.37525,-17.3425 -23.13223,-19.3299 -53.71345,-51.1342 -72.75776,-75.66766 C 58.41231,906.57036 19.819736,806.51116 10.009064,701.96236 7.5390447,675.64012 7.5273263,633.80885 9.9846522,614.76338 18.482644,548.89988 46.242399,493.99347 95.557747,445.50713 131.80554,409.86867 163.98829,388.15899 268.10777,329.10916 367.49551,272.74286 391.93627,254.71717 485.95763,168.43928 561.32947,99.275023 597.01763,72.377505 646.31609,47.580099 707.69464,16.706314 772.7503,2.0320084 848.52915,1.9677936 c 44.06173,-0.037339 72.87944,4.2577185 109.05819,16.2542814 32.1236,10.651918 67.41076,30.062466 93.78476,51.58857 29.1044,23.754749 65.3403,68.392545 70.7394,87.141715 7.9129,27.47922 -12.1532,56.38796 -40.2528,57.99088 -18.2143,1.039 -31.6436,-5.63413 -42.2308,-20.98491 -16.1541,-23.42231 -21.1752,-29.71685 -34.2446,-42.93041 -31.6406,-31.98949 -69.15742,-49.54926 -118.40353,-55.418868 -14.41299,-1.717874 -62.55891,-1.688271 -79.51503,0.04892 -77.43602,7.933388 -131.02264,31.242858 -197.1775,85.769638 -8.60989,7.0965 -31.54037,27.42522 -50.9566,45.17494 -112.91065,103.21933 -139.97923,123.08491 -263.1478,193.12359 -55.47656,31.54621 -80.84963,47.01825 -101.35709,61.80567 -60.76276,43.81448 -84.88946,78.83219 -93.48968,135.6918 -2.495646,16.49976 -2.436203,55.98239 0.1206,80.15544 7.41805,70.13163 30.46413,138.86454 65.30691,194.7721 23.33207,37.43789 48.11726,66.23487 83.60825,97.14122 15.77073,13.73353 20.15787,19.10803 23.4085,28.67673 7.75694,22.8339 -5.18419,49.9594 -27.6444,57.9447 -6.85225,2.4361 -19.8858,3.3372 -25.9439,1.7935 z M 630.03195,999.97688 C 555.8674,992.16634 497.17902,948.25334 470.7573,880.80131 c -9.88888,-25.24541 -13.91799,-48.15104 -13.80532,-78.48398 0.25579,-68.86737 30.2575,-127.40499 83.97217,-163.84158 55.76219,-37.82556 139.18797,-42.30457 198.96673,-10.68222 47.14034,24.93678 80.9747,64.45999 97.05658,113.37571 11.07011,33.67151 13.2513,66.21163 6.7407,100.56358 -7.65216,40.37591 -31.64815,82.52994 -62.28269,109.4126 -42.46219,37.26167 -96.30527,54.63088 -151.37352,48.83146 z m 48.24174,-94.65694 c 20.0567,-5.36698 34.92441,-14.42022 49.88524,-30.37595 7.85393,-8.37631 11.11979,-13.08841 16.00363,-23.09084 8.79811,-18.01898 11.26555,-28.59855 11.26555,-48.30352 0,-12.43949 -0.58116,-18.22314 -2.60024,-25.87822 -8.57596,-32.51414 -30.57558,-58.18345 -60.72514,-70.85442 -13.83661,-5.81514 -24.46156,-7.769 -41.92998,-7.71064 -30.25514,0.101 -52.3363,8.04488 -70.51136,25.36677 -36.75588,35.03035 -42.31144,99.36358 -12.4237,143.86459 2.53774,3.77858 8.85925,10.87244 14.04765,15.76409 13.79353,13.00448 30.2737,20.43417 52.37439,23.61175 11.36967,1.6347 34.12158,0.41402 44.61396,-2.39361 z m -388.80445,-2.99386 c -8.1802,-2.7258 -13.04456,-5.78282 -20.26484,-12.73549 -20.00885,-19.26719 -20.00017,-51.77481 0.0189,-71.05191 11.50705,-11.08055 22.09224,-15.04535 37.72834,-14.13155 18.34002,1.07181 33.19354,11.0748 41.43277,27.90259 4.35505,8.89476 4.55881,9.86723 4.55881,21.75855 0,11.90874 -0.19903,12.85436 -4.59685,21.84174 -5.32874,10.88985 -13.16179,18.75016 -23.85392,23.93703 -5.78811,2.80785 -8.8844,3.43204 -18.54445,3.73833 -7.28862,0.23112 -13.40995,-0.23667 -16.47883,-1.25929 z m 18.98105,-153.66469 c -20.10284,-4.20743 -35.24665,-22.11419 -36.41171,-43.05491 -0.4538,-8.15649 0.0286,-10.96432 4.02601,-23.43802 42.47081,-132.52522 148.76972,-232.35272 282.79073,-265.5746 33.04264,-8.19081 85.62845,-13.62745 101.43849,-10.48736 15.14002,3.00701 26.73271,11.83167 33.31082,25.35683 3.25022,6.68305 3.56333,8.46328 3.56333,20.26577 0,12.37145 -0.18164,13.2771 -4.13863,20.64353 -5.0446,9.39129 -12.68749,16.72617 -21.83263,20.95288 -5.98316,2.76529 -9.31446,3.30463 -25.84749,4.18475 -32.81816,1.74703 -58.11989,5.86934 -82.00785,13.36115 -93.81766,29.42329 -166.8657,101.04556 -198.62906,194.75205 -7.14728,21.08552 -11.45944,28.42502 -20.46591,34.83391 -10.61789,7.55556 -24.11473,10.64887 -35.7961,8.20402 z M 884.33193,550.28425 c -21.41943,-3.649 -40.5493,-14.00095 -56.07981,-30.34696 -8.51723,-8.96443 -13.61115,-16.56111 -18.73729,-27.94336 -25.65401,-56.96245 6.80674,-123.69911 67.61451,-139.00984 14.1325,-3.55841 42.57389,-2.8567 55.625,1.37235 26.63322,8.63016 47.20285,26.02796 59.73493,50.52379 7.96183,15.56276 10.89273,28.09311 10.81403,46.23271 -0.072,16.5273 -2.6434,28.77341 -8.85805,42.18096 -13.16879,28.41103 -39.71999,49.57169 -70.15713,55.91346 -11.46757,2.38937 -29.4129,2.87302 -39.95619,1.07689 z M 787.49641,297.25568 c -15.64537,-5.17163 -27.74474,-17.61696 -32.96146,-33.9041 -3.23644,-10.10464 -2.14627,-24.44914 2.64356,-34.78238 2.04277,-4.4068 5.52812,-10.09815 7.74519,-12.64742 15.39965,-17.70643 42.54934,-21.95393 63.02985,-9.86085 7.19918,4.25089 15.9293,14.13428 19.74544,22.35384 2.9281,6.30673 3.27148,8.47195 3.27148,20.62752 0,12.8001 -0.22559,14.04373 -3.92222,21.62417 -5.06131,10.37904 -13.11568,18.54098 -23.29216,23.60332 -7.23848,3.60078 -9.37866,4.06888 -19.74775,4.31915 -7.04648,0.1701 -13.55343,-0.35531 -16.51193,-1.33325 z"
       id="path1" />
    <text
       xml:space="preserve"
       id="text1"
       style="font-size:165.241px;font-family:Consolas;-inkscape-font-specification:'Consolas, Normal';writing-mode:lr-tb;direction:ltr;white-space:pre;shape-inside:url(#rect1);display:inline;fill:#808080;stroke-width:2.13543" />
    <text
       xml:space="preserve"
       id="text2"
       style="font-style:normal;font-variant:normal;font-weight:bold;font-stretch:normal;font-size:192px;font-family:Consolas;-inkscape-font-specification:'Consolas, Bold';font-variant-ligatures:normal;font-variant-caps:normal;font-variant-numeric:normal;font-variant-east-asian:normal;writing-mode:lr-tb;direction:ltr;white-space:pre;shape-inside:url(#rect2);display:inline;fill:#808080;stroke-width:2.13543"
       transform="matrix(2.1115736,0.01606837,-0.04545669,5.4345136,-161.11384,-1194.1769)"><tspan
         x="100.77148"
         y="395.90039"
         id="tspan3"><tspan
           style="fill:#000000"
           id="tspan1">cBNGL</tspan></tspan></text>
  </g>
</svg>
