<?xml version="1.0" encoding="UTF-8" standalone="no"?>
<!-- Uploaded to: SVG Repo, www.svgrepo.com, Generator: SVG Repo Mixer Tools -->

<svg
   fill="#000000"
   version="1.1"
   id="Capa_1"
   width="800px"
   height="800px"
   viewBox="0 0 45.336 45.335"
   xml:space="preserve"
   sodipodi:docname="einstein-equation-svgrepo-com.svg"
   inkscape:version="1.4.3 (0d15f75, 2025-12-25)"
   xmlns:inkscape="http://www.inkscape.org/namespaces/inkscape"
   xmlns:sodipodi="http://sodipodi.sourceforge.net/DTD/sodipodi-0.dtd"
   xmlns="http://www.w3.org/2000/svg"
   xmlns:svg="http://www.w3.org/2000/svg"><defs
   id="defs1" /><sodipodi:namedview
   id="namedview1"
   pagecolor="#ffffff"
   bordercolor="#000000"
   borderopacity="0.25"
   inkscape:showpageshadow="2"
   inkscape:pageopacity="0.0"
   inkscape:pagecheckerboard="0"
   inkscape:deskcolor="#d1d1d1"
   showgrid="false"
   inkscape:zoom="1.45875"
   inkscape:cx="400"
   inkscape:cy="400"
   inkscape:window-width="2560"
   inkscape:window-height="1369"
   inkscape:window-x="-8"
   inkscape:window-y="-8"
   inkscape:window-maximized="1"
   inkscape:current-layer="g1" />
<g
   id="g1"
   transform="translate(-0.03884833,1.8647198)">
	<path
   id="path1"
   d="m 23.134198,1.9024497 c -12.5,0 -22.66800031,6.8779965 -22.66800031,15.3339943 0,8.456 10.16800031,15.332998 22.66800031,15.332998 1.181533,0 2.378672,-0.06214 3.562573,-0.190265 0.04354,-0.0292 0.102142,-0.05132 0.176318,-0.06065 0.02533,-0.0032 0.05061,-0.0064 0.07593,-0.0096 -0.02296,-0.110487 0.08157,-0.230951 0.301392,-0.216608 0.241969,0.01579 0.484405,0.02054 0.726416,0.005 0.234293,-0.02086 0.462465,-0.07872 0.690334,-0.133816 0.274103,-0.06385 0.552985,-0.100703 0.831566,-0.138133 0.282565,-0.03713 0.562743,-0.08976 0.844737,-0.130828 0.252368,-0.02894 0.500035,-0.0835 0.747225,-0.140237 0.184581,-0.04257 0.368256,-0.08772 0.555189,-0.118874 0.142912,-0.0226 0.287473,-0.03107 0.431334,-0.04538 0.108517,-0.01343 0.217073,-0.02696 0.325077,-0.04405 0.08545,-0.06147 0.17422,-0.118128 0.267744,-0.167686 0.211584,-0.120801 0.428987,-0.236165 0.666979,-0.295525 0.282361,-0.07112 0.570057,-0.115498 0.861783,-0.121198 0.211452,-0.0092 0.423073,-0.01521 0.634438,-0.02579 0.04292,-0.01714 0.08565,-0.03495 0.128282,-0.05291 0.13729,-0.06607 0.278772,-0.121959 0.421594,-0.174659 0.130799,-0.04112 0.261776,-0.08014 0.390492,-0.127729 0.109619,-0.04935 0.221659,-0.09438 0.323639,-0.158499 0.114552,-0.07602 0.229458,-0.151994 0.34002,-0.233764 0.09604,-0.07087 0.189325,-0.146038 0.288995,-0.211848 0.06765,-0.04466 0.130651,-0.06529 0.184841,-0.06807 l 0.287114,-0.43078 c 5.471,-2.92 8.603989,-7.296055 8.603989,-12.039055 0,-8.4589921 -10.17,-15.3359863 -22.668,-15.3359863 z m 16.99303,8.9249713 c 1.484,0 2.468909,0.870008 2.468909,2.213008 v 0.02103 c 0,1.2 -0.610942,1.795047 -1.884942,2.778047 l -1.166052,0.900965 h 2.498018 c 0.381,0 0.68801,0.309009 0.68801,0.688009 0,0.379 -0.304021,0.674949 -0.685021,0.674949 h -3.894956 c -0.49,0 -0.852042,-0.277 -0.852042,-0.748 0,-0.307 0.146083,-0.573953 0.410083,-0.788953 l 2.038902,-1.669994 c 0.893,-0.729 1.237996,-1.128011 1.237996,-1.723011 0,-0.604 -0.397947,-0.931956 -0.962947,-0.931956 -0.451,0 -0.770044,0.193919 -1.168044,0.624919 -0.104,0.112 -0.286934,0.22502 -0.534934,0.22502 -0.396,0 -0.717008,-0.317008 -0.717008,-0.717008 0,-0.175 0.07194,-0.358989 0.187941,-0.491989 0.57,-0.666 1.250087,-1.055036 2.336087,-1.055036 z m -6.32601,2.144052 c 1.467,0 2.456933,0.39095 3.267933,0.99095 0.227,0.168 0.420045,0.476035 0.420045,0.854035 0,0.586 -0.475009,1.047952 -1.062009,1.047952 -0.293,0 -0.487969,-0.111966 -0.640969,-0.209966 -0.604,-0.446 -1.230053,-0.698967 -2.000053,-0.698967 -1.648,0 -2.835935,1.370008 -2.835935,3.047008 v 0.028 c 0,1.676 1.159935,3.074016 2.835935,3.074016 0.908,0 1.510015,-0.279026 2.125015,-0.770026 0.168,-0.14 0.390961,-0.23797 0.642961,-0.23797 0.545,0 1.006003,0.448947 1.006003,0.991947 0,0.336 -0.167928,0.603021 -0.363928,0.771021 -0.881,0.769 -1.916006,1.229031 -3.479006,1.229031 -2.879,0 -5.018063,-2.224012 -5.018063,-5.031012 v -0.02701 c 0,-2.781 2.096071,-5.059015 5.102071,-5.059015 z m -14.33109,0.112012 h 0.23808 c 0.461,0 0.781997,0.237952 0.978997,0.558952 l 2.599957,4.23398 2.613019,-4.247926 c 0.223,-0.363 0.527947,-0.545006 0.962947,-0.545006 h 0.23808 c 0.6,0 1.074959,0.474955 1.074959,1.075955 l 0.003,7.768992 c 0,0.601 -0.476955,1.076066 -1.075955,1.076066 -0.588,0 -1.062009,-0.490066 -1.062009,-1.076066 v -4.875944 l -1.887045,2.905998 c -0.225,0.336 -0.503988,0.54401 -0.894988,0.54401 -0.391,0 -0.669987,-0.20801 -0.894987,-0.54401 L 20.50513,17.093441 v 4.862994 c 0,0.588 -0.472902,1.049059 -1.060902,1.049059 -0.588,0 -1.049059,-0.461059 -1.049059,-1.049059 V 14.15944 c 0,-0.602 0.476959,-1.075955 1.074959,-1.075955 z m -14.7889884,0.057 h 5.4220574 c 0.531,0 0.964939,0.433943 0.964939,0.963943 0,0.531 -0.433939,0.950994 -0.964939,0.950994 H 5.7431487 v 1.984003 h 3.7300371 c 0.5310002,0 0.9649392,0.433054 0.9649392,0.964054 0,0.53 -0.433939,0.949998 -0.9649392,0.949998 H 5.7431487 v 2.055947 h 4.4309963 c 0.53,0 0.963058,0.433058 0.963058,0.963058 0,0.528 -0.433054,0.948005 -0.964054,0.948005 H 4.6811396 c -0.602,0 -1.0739629,-0.476065 -1.0739629,-1.076065 v -7.627982 c 0,-0.601 0.4729629,-1.075955 1.0739629,-1.075955 z m 6.8920464,2.081958 h 5.143024 c 0.529,0 0.962947,0.433055 0.962947,0.964055 0,0.529 -0.433947,0.963943 -0.962947,0.963943 h -5.143024 c -0.531,0 -0.965051,-0.433943 -0.965051,-0.963943 0,-0.531 0.434051,-0.964055 0.965051,-0.964055 z m 0,3.630976 h 5.143024 c 0.529,0 0.962947,0.434054 0.962947,0.964054 0,0.53 -0.433947,0.963943 -0.962947,0.963943 h -5.143024 c -0.531,0 -0.965051,-0.433943 -0.965051,-0.963943 0,-0.53 0.434051,-0.964054 0.965051,-0.964054 z m 24.812162,11.643692 c -0.0059,0.0039 -0.01172,0.0078 -0.0176,0.01173 0.0043,-0.0015 0.0085,-0.003 0.01284,-0.0045 z m -2.068233,2.272999 c -0.0041,9.96e-4 -0.0082,0.002 -0.01229,0.003 l 0.0032,0.0032 c 0.003,-0.0021 0.0061,-0.0041 0.0091,-0.0062 z m -2.380362,1.472202 c -0.0028,5.96e-4 -0.0056,0.0012 -0.0084,0.0018 -8.9e-4,0.0016 -0.0018,0.0034 -0.0027,0.005 0.0037,-0.0022 0.0074,-0.004 0.01107,-0.0062 z m -3.186027,0.623481 c 0.0238,0.04012 0.04845,0.07971 0.07438,0.118653 0.0022,-0.0023 0.0045,-0.0048 0.0068,-0.0071 -0.02703,-0.0372 -0.05408,-0.07437 -0.08113,-0.111569 z m 3.088736,0.02701 c -0.0013,1.58e-4 -0.0025,2.86e-4 -0.0038,4.42e-4 2.25e-4,8.95e-4 4.4e-4,0.0018 6.64e-4,0.0027 0.001,-0.0011 0.0021,-0.002 0.0031,-0.0031 z m -0.368133,0.14909 c -0.0066,0.0029 -0.01313,0.0058 -0.0197,0.0087 0.0049,-0.0011 0.0098,-0.0022 0.01472,-0.0033 0.0019,-7.46e-4 0.0038,-0.0015 0.0058,-0.0022 -2.49e-4,-0.0011 -5.27e-4,-0.0022 -7.74e-4,-0.0032 z m -0.342677,0.582639 c -0.0015,7.39e-4 -0.003,0.0015 -0.0045,0.0022 3.62e-4,0.0029 0.001,0.0051 0.0012,0.0059 v 1.11e-4 h 1.1e-4 v 1.1e-4 h 1.11e-4 v 1.11e-4 h 1.11e-4 v -1.11e-4 h 1.11e-4 v -1.1e-4 -1.11e-4 h 1.1e-4 l 1.11e-4,-1.11e-4 v -1.11e-4 c 9.52e-4,-0.0027 0.0019,-0.0053 0.0028,-0.0079 z m 0.902293,0.07538 c -0.01853,0.03077 -0.0373,0.06147 -0.0559,0.0922 0.02656,-0.03045 0.05302,-0.0611 0.07936,-0.09176 -0.0078,-1.9e-5 -0.01564,-1.33e-4 -0.02346,-4.43e-4 z m -1.79407,0.766706 v 1.1e-4 1.11e-4 1.11e-4 1.1e-4 1.11e-4 c -0.004,0.0076 -0.0079,0.01516 -0.01184,0.0228 0.0168,0.01685 0.03763,0.03859 0.05158,0.04759 -4.9e-4,-0.0048 -0.001,-0.0097 -0.0014,-0.0145 -0.0086,-0.0013 -0.01516,-0.0033 -0.0041,-0.01749 7.01e-4,-0.0011 0.0014,-0.0022 0.0021,-0.0033 -3.06e-4,-0.0033 -5.8e-4,-0.0067 -8.86e-4,-0.01 -0.01166,-0.0076 -0.02353,-0.01642 -0.03542,-0.02568 z" />
</g>
</svg>
