<?xml version="1.0" encoding="UTF-8" standalone="no"?>
<!-- Created with Inkscape (http://www.inkscape.org/) -->

<svg
   version="1.1"
   id="svg1"
   width="820"
   height="490"
   viewBox="0 0 820 490"
   sodipodi:docname="rulesrailroadsvg.svg"
   inkscape:version="1.4.3 (0d15f75, 2025-12-25)"
   xmlns:inkscape="http://www.inkscape.org/namespaces/inkscape"
   xmlns:sodipodi="http://sodipodi.sourceforge.net/DTD/sodipodi-0.dtd"
   xmlns="http://www.w3.org/2000/svg"
   xmlns:svg="http://www.w3.org/2000/svg">
  <defs
     id="defs1" />
  <sodipodi:namedview
     id="namedview1"
     pagecolor="#ffffff"
     bordercolor="#000000"
     borderopacity="0.25"
     inkscape:showpageshadow="2"
     inkscape:pageopacity="0.0"
     inkscape:pagecheckerboard="0"
     inkscape:deskcolor="#d1d1d1"
     showgrid="false"
     inkscape:zoom="1.194897"
     inkscape:cx="703.40791"
     inkscape:cy="281.61423"
     inkscape:window-width="2560"
     inkscape:window-height="1369"
     inkscape:window-x="-8"
     inkscape:window-y="-8"
     inkscape:window-maximized="1"
     inkscape:current-layer="g1"
     showguides="false" />
  <g
     inkscape:groupmode="layer"
     inkscape:label="Image"
     id="g1">
    <path
       id="path2"
       style="fill:#808080"
       d="m -115.82367,9.0715355 c -1.47716,0.231771 -2.84803,0.500877 -4.15039,0.814453 0.16176,0.2026125 0.27588,0.4663875 0.35352,0.7695315 1.10359,-0.583772 2.47393,-1.1467405 3.79687,-1.5839845 z m 441.36524,0.0918 C 305.13053,13.489806 287.5751,30.315157 282.13141,50.770762 c -0.79839,3.00005 -1.45589,6.91757 -1.46289,8.70507 -0.008,2.21695 -0.48851,3.25 -1.51172,3.25 -1.2,0 -1.5,1.5 -1.5,7.5 0,6 0.3,7.5 1.5,7.5 1.02321,0 1.50372,1.03306 1.51172,3.25 0.007,1.7875 0.6645,5.70497 1.46289,8.70508 5.3802,20.216998 22.93796,37.209378 42.94336,41.562498 9.20653,2.00335 185.2668,2.04397 194.69727,0.0449 20.41105,-4.32647 37.96646,-21.15184 43.41015,-41.607418 0.79838,-3.00006 1.45589,-6.91758 1.46289,-8.70508 l 0.0117,-3.25 h 6.5 6.5 v -7.5 -7.5 h -6.5 -6.5 l -0.0117,-3.25 c -0.007,-1.7875 -0.66451,-5.70502 -1.46289,-8.70507 -5.44369,-20.455605 -22.9991,-37.280956 -43.41015,-41.6074265 -9.76137,-2.06909 -184.46909,-2.06909 -194.23047,0 z m -456.56641,8.5371055 c -0.0662,0.0043 -0.24799,0.09728 -0.625,0.259766 0.15608,-9.1e-5 0.33818,-6.7e-5 0.55664,0.0078 0.0596,-0.132655 0.10283,-0.213374 0.0996,-0.248046 -2.1e-4,-0.0011 -0.002,-0.0049 -0.002,-0.0059 l -0.002,-0.002 v -0.002 l -0.002,-0.002 -0.002,-0.002 -0.002,-0.002 -0.002,-0.002 h -0.002 c -0.004,-0.0012 -0.0114,-0.0024 -0.0176,-0.002 z m 101.289058,0.574219 c 0.0546,0.08125 0.10983,0.162653 0.16407,0.244141 0.68123,0.465445 1.34942,0.943043 2.00781,1.43164 0.004,-0.0091 0.008,-0.01832 0.0117,-0.02734 -0.72172,-0.570549 -1.45182,-1.120927 -2.1836,-1.648437 z M 775.6568,20.725832 v 21 21 h -63.5664 c -34.96116,0 -64.32366,0.39153 -65.25,0.86914 -0.92634,0.47761 -3.3711,1.17261 -5.4336,1.54492 -3.00757,0.54292 -3.75,0.37023 -3.75,-0.86914 0,-1.29138 -1.65265,-1.54492 -10.0625,-1.54492 h -10.06445 l 0.20898,7.92382 0.20899,7.92383 -4.25,5.32617 c -5.35964,6.71642 -9.45031,14.76137 -11.46875,22.550788 -1.29684,5.00469 -1.57408,12.85392 -1.58008,44.91992 -0.004,21.70458 -0.46055,41.72461 -1.03516,45.35547 -2.61045,16.49503 -14.33002,29.54838 -30.88867,34.40625 -4.4516,1.30598 -10.9915,1.59375 -36.25,1.59375 H 501.6568 v -27.5 -27.5 h -79 -79 v 27.5 27.5 h -30.78906 c -32.82343,0 -37.79687,-0.55537 -45.82031,-5.11133 -5.46692,-3.10429 -13.04172,-10.59548 -15.93555,-15.75977 -5.65056,-10.08391 -5.75842,-11.09352 -6.41601,-59.6289 -0.54055,-39.89199 -0.81544,-45.56755 -2.41602,-50 -2.49228,-6.901728 -6.12285,-13.059288 -11.34766,-19.249998 l -4.42968,-5.25 h 5.57617 5.57812 v -7.5 -7.5 h -10 -10 v 4.39062 4.39258 l -4.99219,-2.64258 c -3.06864,-1.62385 -4.995,-3.31478 -5,-4.39062 -0.008,-1.6557 -5.74911,-1.75 -106.50781,-1.75 H 38.170467 v 0.43554 c 0.004,4.79273 0.0618,9.58326 -0.17968,14.3711 -0.003,0.0645 -0.007,0.12892 -0.01,0.19336 h 55.964851 c 82.747882,0 100.199562,0.23737 104.750002,1.42578 13.87416,3.62345 24.70099,14.14026 29.65234,28.806638 1.65706,4.90839 1.81243,14.12148 2.29297,135.26758 0.489,123.2815 0.61134,130.25841 2.36523,135 7.26853,19.65031 24.19631,34.28124 43.98828,38.01953 5.80277,1.09602 15.47506,1.48047 37.25,1.48047 h 29.41211 v 27.5 27.5 h 79 79 v -27.5 -27.5 h 29.91211 c 34.67261,0 41.16363,-0.82841 52.29492,-6.67774 9.32523,-4.90027 19.17346,-14.70857 23.98438,-23.88476 7.20506,-13.74269 6.8084,-5.38948 6.8164,-143.08203 0.005,-79.95467 0.37111,-126.15941 1.03516,-130.35547 2.61045,-16.495018 14.33002,-29.548378 30.88867,-34.406248 4.71135,-1.38218 13.62785,-1.59375 67.25,-1.59375 h 61.81836 v 21 20.999998 h 7 7 v -49.499998 -49.5 h -7 z m -353,2 c 77.73362,0 90.3671,0.205974 95.53907,1.552734 12.21654,3.18118 21.56579,10.8333 27.22656,22.28711 l 3.73437,7.556636 v 16.10352 16.10351 l -3.73437,7.55664 c -5.66077,11.453808 -15.01001,19.105938 -27.22656,22.287108 -8.7002,2.26551 -183.06798,2.21941 -191.51563,-0.0508 -11.82264,-3.17703 -21.22786,-10.984 -26.78906,-22.236328 l -3.73438,-7.55664 v -16.10349 -16.10352 l 3.73438,-7.556636 c 5.66078,-11.45381 15.00998,-19.10593 27.22656,-22.28711 5.17193,-1.34676 17.80545,-1.552734 95.53906,-1.552734 z m -696.11914,1.21875 c -0.0535,0.01596 -0.16702,0.160233 -0.33789,0.527344 -0.006,0.02353 -0.0116,0.04677 -0.0176,0.07031 0.29234,-0.188599 0.41445,-0.50541 0.38672,-0.582031 v -0.002 -0.002 h -0.002 v -0.002 l -0.002,-0.002 -0.002,-0.002 -0.002,-0.002 -0.002,-0.002 c -8.3e-4,-3.59e-4 -0.005,-0.0017 -0.006,-0.002 -9.5e-4,-1.3e-4 -0.005,1.2e-5 -0.006,0 h -0.002 c -9.3e-4,-5.8e-5 -0.005,-1.6e-5 -0.006,0 z m 671.11914,8.78125 v 6.5 6.5 h 5 5 v -6.5 -6.5 h -5 z m 38,8 v 5.445312 5.445318 l -4.75,0.30468 c -4.70421,0.30185 -4.75317,0.34084 -5.06054,4.05469 l -0.31055,3.75 h 4.97656 4.97656 l 0.33399,11.92968 c 0.28602,10.22467 0.63255,12.33068 2.42383,14.72657 1.14958,1.53759 3.17458,3.09993 4.5,3.4707 1.32542,0.37077 5.67265,0.71864 9.66015,0.77344 l 7.25,0.0996 v -4 c 0,-3.989 -0.0115,-4 -3.93554,-4 -2.16419,0 -5.08919,-0.43823 -6.5,-0.97461 -2.5292,-0.96161 -2.56446,-1.12251 -2.56446,-11.5 v -10.52538 h 6.5 6.5 v -4 -4 h -6.5 -6.5 v -5.5 -5.5 h -5.5 z m -533.496094,3.679687 c -0.154353,0.136443 -0.308498,0.273781 -0.460938,0.41211 0.147585,-0.08703 0.295635,-0.174481 0.44336,-0.261719 0.0058,-0.05027 0.01179,-0.100111 0.01758,-0.150391 z m 18.228515,1.275391 -0.230468,0.839844 c 0.289656,0.119168 0.582283,0.263922 0.878906,0.43164 -0.07628,-0.411923 -0.155756,-0.821262 -0.238281,-1.230468 -0.136457,-0.01434 -0.273615,-0.02787 -0.410157,-0.04102 z m 565.912109,5.208982 c -10.31543,0.10422 -17.49586,6.99328 -18.42968,18.25391 -0.85059,10.25701 3.40476,18.23048 11.28515,21.14648 4.40892,1.63144 15.99245,1.37742 20.75,-0.45508 2.48964,-0.95896 2.75,-1.53039 2.75,-6.03515 v -4.97657 l -4.25,1.92969 c -2.44868,1.1115 -6.49389,1.93847 -9.54492,1.95117 -4.30639,0.0179 -5.75391,-0.4375 -7.75,-2.43359 -4.93593,-4.93593 -3.77737,-5.54492 10.54492,-5.54492 h 13 l -0.006,-3.75 c -0.0149,-10.00263 -5.85373,-18.37557 -13.74609,-19.70898 -1.59259,-0.26907 -3.12988,-0.39185 -4.60352,-0.37696 z m -126.5332,0.0645 c -10.22971,-0.24709 -17.12179,5.86605 -15.55078,14.24024 0.89719,4.78247 4.09605,7.29927 12.54687,9.86914 5.39567,1.64081 7.47956,2.75267 7.7461,4.13672 0.8716,4.52584 -6.43382,5.81587 -14.8418,2.62109 l -5.01172,-1.9043 v 4.76172 4.76172 l 4.25,1.07227 c 7.00856,1.76643 18.16431,1.0376 21.44922,-1.40039 5.47682,-4.06477 6.26816,-13.14591 1.55664,-17.85743 -1.44092,-1.44093 -5.49338,-3.40957 -9.44336,-4.58593 -7.42915,-2.21249 -9.3797,-4.30084 -6.22461,-6.66602 2.27799,-1.70766 8.92425,-1.09743 13.42969,1.23242 l 2.98242,1.54102 v -4.91602 c 0,-5.57512 -0.1274,-5.6561 -10.79883,-6.77148 -0.71012,-0.0742 -1.40786,-0.11829 -2.08984,-0.13477 z m -647.11133,0.65235 v 15.82422 c 0.14571,-0.35409 0.35536,-0.69583 0.62891,-1.01368 -0.12618,-2.58516 -0.079,-5.20516 -0.12891,-7.76758 -0.0363,-2.32161 -0.0656,-4.64307 -0.0879,-6.96484 -0.14522,-0.023 -0.28244,-0.049 -0.41211,-0.0781 z m 675,0.11914 v 3.94531 3.94531 l 4.75,0.30469 4.75,0.30469 0.28321,11.25 0.2832,11.25 h -6.5332 -6.53321 v 4 4 h 18 18 v -3.95313 -3.95117 l -6.25,-0.29883 -6.25,-0.29687 -0.27539,-15.25 -0.27734,-15.25 h -9.97266 z m 98.57227,8 c 3.6162,0 7.42773,2.82222 7.42773,5.5 0,1.2 -1.5,1.5 -7.5,1.5 -4.125,0 -7.5,-0.38941 -7.5,-0.86524 0,-0.47582 0.93236,-2.05082 2.07227,-3.5 1.5188,-1.93083 2.98838,-2.63476 5.5,-2.63476 z m -238.57227,3 v 7.5 7.5 h 10 10 v -7.5 -7.5 h -10 z m 340,0 v 7.5 7.5 h 10 10 v -7.5 -7.5 h -10 z M 11.795467,76.251222 c -0.0197,0.004 -0.0388,0.009 -0.0586,0.0137 0.0171,0.003 0.0337,0.007 0.0508,0.01 0.003,-0.007 0.005,-0.0162 0.008,-0.0234 z m -2.5019501,0.88476 c -0.43445,0.19095 -0.87159,0.39293 -1.30664,0.58985 h 1.82617 c -0.17794,-0.19424 -0.35022,-0.39272 -0.51953,-0.58985 z m 22.7636701,0.5586 c -0.01,0.0106 -0.0194,0.0207 -0.0293,0.0312 h 0.0273 c 5.8e-4,-0.0106 8e-4,-0.0211 0.002,-0.0312 z M -287.3432,117.82153 v 1.9043 h 1.50586 c -0.1789,-0.26657 -0.31551,-0.5512 -0.41992,-0.84961 -0.37747,-0.33174 -0.73868,-0.68521 -1.08594,-1.05469 z m 197.134765,4.27734 c -0.501702,0.0745 -1.001379,0.15115 -1.501953,0.23243 0.155549,0.009 0.309305,0.0178 0.464844,0.0273 0.328952,0.0217 0.659309,0.045 0.988281,0.0664 0.01531,-0.10894 0.0308,-0.21773 0.04883,-0.32618 z M 358.6568,192.72583 h 64 64 v 47.5 47.5 h -64 -64 v -47.5 z m 69,28.89453 -0.0156,12.80273 c -0.0162,14.03733 -0.98245,17.58218 -4.95313,18.14844 -4.28024,0.61042 -5.03125,-1.93282 -5.03125,-17.03711 v -13.80859 h -5.58593 -5.58594 l 0.33594,16.29687 c 0.3609,17.50322 1.23034,20.71391 6.14453,22.69336 3.66961,1.47813 8.02178,1.10647 11.4414,-0.97851 2.65186,-1.61687 3.25,-1.70803 3.25,-0.4961 0,1.13441 1.30436,1.48438 5.52149,1.48438 h 5.52148 l -0.27148,-19.25 -0.27149,-19.25 -5.25,-0.30274 z m -182.47656,8.10547 c 0.33683,0 3.07362,2.00444 6.08203,4.45508 3.0084,2.4506 8.26463,5.82978 11.68164,7.50781 10.40635,5.11038 18.28536,6.03711 51.30078,6.03711 h 29.41211 v 27.5 27.5 h 79 79 v -27.5 -27.5 h 29.91211 c 40.4095,0 47.81264,-1.59338 62.32617,-13.41602 3.09492,-2.5211 5.88322,-4.58398 6.19532,-4.58398 1.04988,0 0.59689,130.21693 -0.47657,137 -2.61045,16.49503 -14.33002,29.54838 -30.88867,34.40625 -4.4516,1.30598 -10.9915,1.59375 -36.25,1.59375 H 501.6568 v -27.5 -27.5 h -79 -79 v 27.5 27.5 l -31.25,-0.0664 c -33.13397,-0.0698 -37.44261,-0.5471 -45.33789,-5.03125 -5.48675,-3.11621 -13.05918,-10.60197 -15.95703,-15.77344 -6.04748,-10.79225 -5.86795,-8.3959 -6.2207,-83.3789 -0.17788,-37.8125 -0.0478,-68.75 0.28906,-68.75 z m 113.47656,133 h 64 64 v 47.5 47.5 h -64 -64 v -47.5 z m 68.22071,28.11328 c -2.18816,0.074 -4.37624,0.86053 -6.58204,2.35742 -3.45177,2.34243 -3.63867,2.36823 -3.63867,0.5 0,-1.69717 -0.69216,-1.9707 -5,-1.9707 h -5 v 27 27 h 5 5 v -9.58985 -9.58789 l 3.20508,2.69727 c 2.75681,2.31972 3.87567,2.6316 8.00977,2.23437 8.72503,-0.83837 12.74218,-7.22316 12.74218,-20.2539 0,-9.68295 -2.24583,-15.48753 -7.14843,-18.47657 -2.21018,-1.34751 -4.39974,-1.98417 -6.58789,-1.91015 z m -3.25,9.0293 c 0.27446,-0.012 0.55324,0.009 0.83593,0.0645 5.34459,1.0535 7.69516,13.9541 3.55664,19.51758 -3.95088,5.31125 -8.94961,3.15074 -10.28515,-4.44532 -1.30344,-7.41346 1.77568,-14.9575 5.89258,-15.13671 z" />
    <rect
       style="fill:#808080;stroke-width:1.0214"
       id="rect15"
       width="14.227162"
       height="97.916382"
       x="24.269817"
       y="20.085419"
       rx="0" />
    <rect
       style="fill:#d7eef4;stroke-width:2.7966"
       id="rect16"
       width="261.94727"
       height="106.2853"
       x="290.40158"
       y="17.574734"
       rx="61.681076" />
    <text
       xml:space="preserve"
       style="font-size:191.712px;font-family:Consolas;-inkscape-font-specification:'Consolas, Normal';writing-mode:lr-tb;direction:ltr;fill:#000000;stroke-width:2.13223"
       x="288.44"
       y="151.78168"
       id="text2-7"
       transform="scale(1.2150288,0.82302576)"><tspan
         sodipodi:role="line"
         id="tspan2-6"
         x="288.44"
         y="151.78168"
         style="stroke-width:2.13223">R</tspan></text>
    <rect
       style="fill:#cccccc;stroke-width:2.13543"
       id="rect2"
       width="142.27168"
       height="38.497044"
       x="-89.54747"
       y="-199.18034"
       rx="0"
       ry="0" />
    <rect
       style="fill:#e9ddaf;stroke-width:1.32733"
       id="rect3"
       width="128.88141"
       height="95.405716"
       x="358.18991"
       y="191.64833" />
    <rect
       style="fill:#cccccc;stroke-width:2.13543"
       id="rect4"
       width="12.553383"
       height="0.83689225"
       x="362.37433"
       y="305.46567" />
    <rect
       style="fill:#e9ddaf;stroke-width:1.10963"
       id="rect5"
       width="130.55518"
       height="99.590164"
       x="357.353"
       y="359.02676" />
    <text
       xml:space="preserve"
       style="font-size:176.792px;font-family:Consolas;-inkscape-font-specification:'Consolas, Normal';writing-mode:lr-tb;direction:ltr;fill:#000000;stroke-width:1.96628"
       x="266.01755"
       y="604.53149"
       id="text2-7-8"
       transform="scale(1.3175741,0.75897059)"><tspan
         sodipodi:role="line"
         id="tspan2-6-2"
         x="266.01755"
         y="604.53149"
         style="stroke-width:1.96628">R</tspan></text>
    <text
       xml:space="preserve"
       style="font-size:178.51px;font-family:Consolas;-inkscape-font-specification:'Consolas, Normal';writing-mode:lr-tb;direction:ltr;fill:#000000;stroke-width:1.9854"
       x="267.70566"
       y="376.6478"
       id="text2-7-8-7"
       transform="scale(1.3048831,0.7663522)"><tspan
         sodipodi:role="line"
         id="tspan2-6-2-1"
         x="267.70566"
         y="376.6478"
         style="stroke-width:1.9854">R</tspan></text>
  </g>
</svg>
